<?xml version="1.0" encoding="UTF-8"?>
<svg width="496px" height="16px" viewBox="0 0 496 16" version="1.1" xmlns="http://www.w3.org/2000/svg" xmlns:xlink="http://www.w3.org/1999/xlink">
    <!-- Generator: Sketch 49.2 (51160) - http://www.bohemiancoding.com/sketch -->
    <title>Artboard 2</title>
    <desc>Created with Sketch.</desc>
    <defs>
        <polygon id="path-1" points="0.00043902439 0.00585365854 5.99413902 0.00585365854 5.99413902 5.99999268 0.00043902439 5.99999268"></polygon>
    </defs>
    <g id="Artboard-2" stroke="none" stroke-width="1" fill="none" fill-rule="evenodd">
        <g id="Group-25" transform="translate(164.000000, 1.000000)" fill="#7789DB" fill-rule="nonzero">
            <g id="小程序">
                <path d="M7,0.00569197674 C3.13715034,0.00569197674 0.00569197674,3.13715034 0.00569197674,7 C0.00569197674,10.8628497 3.13715034,13.994308 7,13.994308 C10.8628497,13.994308 13.994308,10.8628497 13.994308,7 C13.994308,3.13715034 10.8628497,0.00569197674 7,0.00569197674 Z M9.33143601,7.51291593 C9.05486058,7.60791368 8.75070569,7.48326004 8.62034803,7.22148642 C8.49211905,6.94171411 8.62034803,6.74354204 8.87680599,6.58034152 C8.97233656,6.51629629 9.07383808,6.46164162 9.17989267,6.417141 C9.64617987,6.14902586 10.0308668,5.79931047 9.79772321,5.251423 C9.59408184,4.76335456 9.0620569,4.49982819 8.55040495,4.63359246 C8.28758845,4.63970358 8.03797276,4.75000522 7.85650729,4.94021601 C7.67504183,5.13042679 7.57660237,5.38495404 7.582859,5.64776711 L7.582859,8.55040495 C7.42439938,9.71380195 6.42551271,10.5778389 5.251423,10.5670971 C3.98148444,10.4737155 3.02138084,9.37867839 3.09484469,8.1074321 C3.09484469,7.43131566 3.72433242,6.94171409 4.55199219,6.52205561 C4.90170759,6.41714099 5.25142298,6.41714099 5.43793788,6.7668564 C5.62445278,7.11657181 5.27473736,7.37302976 4.97165067,7.51291593 C4.35382013,7.78103107 4.05073345,8.21234672 4.34216296,8.84183445 C4.4656752,9.10464044 4.68945531,9.30691124 4.96336444,9.40332725 C5.23727357,9.49974326 5.53841273,9.48224404 5.79931045,9.35475036 C6.26380288,9.19745645 6.55200341,8.73340474 6.48708407,8.24731826 L6.48708407,5.61279557 C6.43437566,4.66629488 7.04428575,3.80951643 7.95588876,3.54947471 C8.86688591,3.24309061 9.87286011,3.50372937 10.5204684,4.21393397 C10.9266494,4.78062683 11.0302674,5.51004923 10.7979737,6.1674406 C10.5656799,6.82483198 10.0267929,7.32722077 9.35475036,7.51291593 L9.33143601,7.51291593 Z" id="Shape"></path>
            </g>
        </g>
        <g id="icon-svg-android" transform="translate(2.000000, 1.000000)" fill="#99C145" fill-rule="nonzero">
            <path d="M11.118,4.386 C10.648,4.386 10.267,4.773 10.267,5.25 L10.267,8.628 C10.267,9.105 10.648,9.492 11.118,9.492 C11.588,9.492 11.969,9.105 11.969,8.628 L11.969,5.25 C11.969,4.773 11.588,4.386 11.118,4.386 Z M0.851,4.386 C0.381,4.386 0,4.773 0,5.25 L0,8.628 C0,9.105 0.381,9.492 0.851,9.492 C1.321,9.492 1.702,9.105 1.702,8.628 L1.702,5.25 C1.702,4.773 1.321,4.386 0.851,4.386 Z" id="Shape"></path>
            <path d="M2.215,4.412 L2.215,10.584 C2.215,10.951 2.512,11.248 2.879,11.248 L3.637,11.248 L3.637,13.128 C3.637,13.605 4.018,13.992 4.488,13.992 C4.958,13.992 5.339,13.605 5.339,13.128 L5.339,11.248 L6.664,11.248 L6.664,13.128 C6.664,13.605 7.045,13.992 7.515,13.992 C7.985,13.992 8.366,13.605 8.366,13.128 L8.366,11.248 L9.124,11.248 C9.491,11.248 9.788,10.951 9.788,10.584 L9.788,4.412 L2.214,4.412 L2.215,4.412 Z" id="Shape"></path>
            <path d="M7.78,1.214 L8.48,0.198 C8.522,0.138 8.511,0.058 8.457,0.021 C8.403,-0.016 8.325,0.002 8.283,0.063 L7.556,1.118 C7.077,0.929 6.545,0.824 5.984,0.824 C5.423,0.824 4.891,0.929 4.412,1.118 L3.685,0.063 C3.643,0.003 3.566,-0.016 3.511,0.021 C3.456,0.058 3.446,0.138 3.488,0.198 L4.188,1.214 C3.076,1.731 2.296,2.715 2.196,3.862 L9.77,3.862 C9.671,2.714 8.891,1.731 7.778,1.214 L7.78,1.214 Z M4.387,2.815 C4.156,2.815 3.968,2.627 3.968,2.396 C3.968,2.165 4.156,1.977 4.387,1.977 C4.618,1.977 4.806,2.165 4.806,2.396 C4.806,2.627 4.618,2.815 4.387,2.815 Z M7.635,2.815 C7.404,2.815 7.216,2.627 7.216,2.396 C7.216,2.165 7.404,1.977 7.635,1.977 C7.867,1.977 8.054,2.165 8.054,2.396 C8.054,2.627 7.866,2.815 7.635,2.815 Z" id="Shape"></path>
        </g>
        <g id="icon-svg-iphone" transform="translate(33.000000, 0.000000)" fill="#000000" fill-rule="nonzero">
            <path d="M12.072,10.56 C12.5093333,11.1786667 13.0106667,11.5786667 13.576,11.76 C13.3306667,12.5173333 12.9413333,13.3066667 12.408,14.128 C11.5866667,15.3653333 10.776,15.984 9.976,15.984 C9.67733333,15.984 9.23466667,15.8826667 8.648,15.68 C8.104,15.4773333 7.62933333,15.376 7.224,15.376 C6.81866667,15.376 6.37066667,15.4826667 5.88,15.696 C5.368,15.8986667 4.94666667,16 4.616,16 C3.656,16 2.712,15.184 1.784,13.552 C0.856,11.9413333 0.392,10.3573333 0.392,8.8 C0.392,7.36 0.744,6.18133333 1.448,5.264 C2.17333333,4.34666667 3.06933333,3.888 4.136,3.888 C4.37066667,3.888 4.632,3.91733333 4.92,3.976 C5.208,4.03466667 5.50666667,4.144 5.816,4.304 C6.14666667,4.48533333 6.41866667,4.61066667 6.632,4.68 C6.84533333,4.74933333 7.01066667,4.784 7.128,4.784 C7.26666667,4.784 7.48,4.752 7.768,4.688 C8.056,4.624 8.344,4.50666667 8.632,4.336 C8.94133333,4.16533333 9.208,4.03733333 9.432,3.952 C9.656,3.86666667 9.88533333,3.824 10.12,3.824 C10.8666667,3.824 11.5386667,4.02666667 12.136,4.432 C12.456,4.64533333 12.7813333,4.96 13.112,5.376 C12.6213333,5.80266667 12.264,6.176 12.04,6.496 C11.624,7.09333333 11.416,7.744 11.416,8.448 C11.416,9.22666667 11.6346667,9.93066667 12.072,10.56 Z M8.856,3.088 C8.48266667,3.44 8.14133333,3.66933333 7.832,3.776 C7.72533333,3.808 7.58933333,3.83733333 7.424,3.864 C7.25866667,3.89066667 7.06933333,3.91466667 6.856,3.936 C6.86666667,2.99733333 7.112,2.18666667 7.592,1.504 C8.072,0.821333333 8.86133333,0.352 9.96,0.096 C9.98133333,0.202666667 9.99733333,0.277333333 10.008,0.32 L10.008,0.496 C10.008,0.88 9.91733333,1.312 9.736,1.792 C9.544,2.26133333 9.25066667,2.69333333 8.856,3.088 Z" id="Shape"></path>
        </g>
        <g id="icon-svg-mobile1" transform="translate(68.000000, 1.000000)" fill="#EA9518" fill-rule="nonzero">
            <path d="M3.979,4.494 C2.588,4.494 1.46,5.622 1.46,7.013 C1.46,8.404 2.588,9.532 3.979,9.532 C5.37,9.532 6.498,8.404 6.498,7.013 C6.498,5.622 5.37,4.494 3.979,4.494 Z M3.635,8.557 C3.205,8.011 2.698,7.596 2.344,7.466 L3.18,6.946 L3.585,7.751 C3.585,7.751 4.243,6.115 5.281,5.569 C5.256,5.959 5.155,6.296 5.332,6.712 C4.876,6.816 3.939,7.985 3.636,8.556 L3.635,8.557 Z" id="Shape"></path>
            <path d="M7.452,0.01 L0.547,0.01 C0.258,0.01 0.025,0.239 0.025,0.522 L0.025,13.479 C0.025,13.762 0.259,13.991 0.547,13.991 L7.452,13.991 C7.74,13.991 7.974,13.762 7.974,13.479 L7.974,0.522 C7.974,0.24 7.74,0.01 7.452,0.01 Z M3.403,0.611 L4.595,0.611 L4.595,0.835 L3.403,0.835 L3.403,0.611 Z M3.999,13.654 C3.733,13.654 3.517,13.443 3.517,13.183 C3.517,12.923 3.733,12.711 3.999,12.711 C4.265,12.711 4.481,12.922 4.481,13.183 C4.481,13.444 4.265,13.654 3.999,13.654 Z M7.46,12.504 L0.539,12.504 L0.539,1.522 L7.46,1.522 L7.46,12.504 Z" id="Shape"></path>
        </g>
        <g id="icon-svg-mobile2" transform="translate(99.000000, 0.000000)" fill="#3792FE" fill-rule="nonzero">
            <path d="M8.977,15.995 L1.006,15.995 C0.455,15.995 0.01,15.549 0.01,14.999 L0.01,1.049 C0.01,0.499 0.456,0.053 1.006,0.053 L8.977,0.053 C9.527,0.053 9.973,0.499 9.973,1.049 L9.973,14.999 C9.973,15.549 9.526,15.995 8.977,15.995 Z M4.992,15.497 C5.267,15.497 5.49,15.274 5.49,14.999 C5.49,14.724 5.267,14.501 4.992,14.501 C4.717,14.501 4.494,14.724 4.494,14.999 C4.494,15.274 4.717,15.497 4.992,15.497 Z M7.234,1.049 L2.75,1.049 C2.612,1.049 2.501,1.16 2.501,1.298 C2.501,1.436 2.612,1.547 2.75,1.547 L7.234,1.547 C7.371,1.547 7.483,1.435 7.483,1.298 C7.483,1.161 7.371,1.049 7.234,1.049 Z M8.977,2.543 L1.006,2.543 L1.006,14.002 L8.977,14.002 L8.977,2.543 Z" id="Shape"></path>
        </g>
        <g id="icon-svg-weixin" transform="translate(128.000000, 1.000000)" fill="#50C823" fill-rule="nonzero">
            <path d="M10.811,4.445 C10.993,4.445 11.174,4.458 11.352,4.479 C10.866,2.214 8.444,0.531 5.68,0.531 C2.59,0.531 0.059,2.637 0.059,5.312 C0.059,6.856 0.901,8.124 2.308,9.107 L1.746,10.798 L3.711,9.812 C4.414,9.951 4.978,10.094 5.68,10.094 C5.856,10.094 6.031,10.085 6.205,10.072 C6.095,9.696 6.032,9.303 6.032,8.894 C6.032,6.438 8.141,4.445 10.811,4.445 Z M7.788,2.921 C8.211,2.921 8.492,3.2 8.492,3.623 C8.492,4.044 8.212,4.327 7.788,4.327 C7.367,4.327 6.944,4.045 6.944,3.623 C6.944,3.2 7.367,2.921 7.788,2.921 Z M3.854,4.326 C3.433,4.326 3.007,4.044 3.007,3.622 C3.007,3.199 3.432,2.92 3.854,2.92 C4.276,2.92 4.556,3.199 4.556,3.622 C4.556,4.043 4.276,4.326 3.854,4.326 Z M15.941,8.827 C15.941,6.579 13.692,4.747 11.166,4.747 C8.491,4.747 6.385,6.579 6.385,8.827 C6.385,11.078 8.492,12.906 11.166,12.906 C11.726,12.906 12.29,12.765 12.853,12.624 L14.395,13.469 L13.972,12.064 C15.1,11.217 15.941,10.095 15.941,8.828 L15.941,8.827 Z M9.616,8.123 C9.336,8.123 9.054,7.845 9.054,7.56 C9.054,7.28 9.336,6.998 9.616,6.998 C10.041,6.998 10.32,7.28 10.32,7.56 C10.32,7.844 10.042,8.123 9.616,8.123 Z M12.708,8.123 C12.43,8.123 12.15,7.845 12.15,7.56 C12.15,7.28 12.43,6.998 12.708,6.998 C13.129,6.998 13.412,7.28 13.412,7.56 C13.412,7.844 13.13,8.123 12.708,8.123 Z" id="Shape"></path>
        </g>
        <g id="icon-svg-weixin-copy-2" transform="translate(233.000000, 1.000000)" fill="#FF5E5B" fill-rule="nonzero">
            <path d="M10.811,4.445 C10.993,4.445 11.174,4.458 11.352,4.479 C10.866,2.214 8.444,0.531 5.68,0.531 C2.59,0.531 0.059,2.637 0.059,5.312 C0.059,6.856 0.901,8.124 2.308,9.107 L1.746,10.798 L3.711,9.812 C4.414,9.951 4.978,10.094 5.68,10.094 C5.856,10.094 6.031,10.085 6.205,10.072 C6.095,9.696 6.032,9.303 6.032,8.894 C6.032,6.438 8.141,4.445 10.811,4.445 Z M7.788,2.921 C8.211,2.921 8.492,3.2 8.492,3.623 C8.492,4.044 8.212,4.327 7.788,4.327 C7.367,4.327 6.944,4.045 6.944,3.623 C6.944,3.2 7.367,2.921 7.788,2.921 Z M3.854,4.326 C3.433,4.326 3.007,4.044 3.007,3.622 C3.007,3.199 3.432,2.92 3.854,2.92 C4.276,2.92 4.556,3.199 4.556,3.622 C4.556,4.043 4.276,4.326 3.854,4.326 Z M15.941,8.827 C15.941,6.579 13.692,4.747 11.166,4.747 C8.491,4.747 6.385,6.579 6.385,8.827 C6.385,11.078 8.492,12.906 11.166,12.906 C11.726,12.906 12.29,12.765 12.853,12.624 L14.395,13.469 L13.972,12.064 C15.1,11.217 15.941,10.095 15.941,8.828 L15.941,8.827 Z M9.616,8.123 C9.336,8.123 9.054,7.845 9.054,7.56 C9.054,7.28 9.336,6.998 9.616,6.998 C10.041,6.998 10.32,7.28 10.32,7.56 C10.32,7.844 10.042,8.123 9.616,8.123 Z M12.708,8.123 C12.43,8.123 12.15,7.845 12.15,7.56 C12.15,7.28 12.43,6.998 12.708,6.998 C13.129,6.998 13.412,7.28 13.412,7.56 C13.412,7.844 13.13,8.123 12.708,8.123 Z" id="Shape"></path>
        </g>
        <g id="Group" transform="translate(197.000000, 1.000000)">
            <g id="icon-svg-weixin-copy" transform="translate(0.000000, 1.000000)" fill="#50C823" fill-rule="nonzero">
                <path d="M10.811,4.445 C10.993,4.445 11.174,4.458 11.352,4.479 C10.866,2.214 8.444,0.531 5.68,0.531 C2.59,0.531 0.059,2.637 0.059,5.312 C0.059,6.856 0.901,8.124 2.308,9.107 L1.746,10.798 L3.711,9.812 C4.414,9.951 4.978,10.094 5.68,10.094 C5.856,10.094 6.031,10.085 6.205,10.072 C6.095,9.696 6.032,9.303 6.032,8.894 C6.032,6.438 8.141,4.445 10.811,4.445 Z M7.788,2.921 C8.211,2.921 8.492,3.2 8.492,3.623 C8.492,4.044 8.212,4.327 7.788,4.327 C7.367,4.327 6.944,4.045 6.944,3.623 C6.944,3.2 7.367,2.921 7.788,2.921 Z M3.854,4.326 C3.433,4.326 3.007,4.044 3.007,3.622 C3.007,3.199 3.432,2.92 3.854,2.92 C4.276,2.92 4.556,3.199 4.556,3.622 C4.556,4.043 4.276,4.326 3.854,4.326 Z M15.941,8.827 C15.941,6.579 13.692,4.747 11.166,4.747 C8.491,4.747 6.385,6.579 6.385,8.827 C6.385,11.078 8.492,12.906 11.166,12.906 C11.726,12.906 12.29,12.765 12.853,12.624 L14.395,13.469 L13.972,12.064 C15.1,11.217 15.941,10.095 15.941,8.828 L15.941,8.827 Z M9.616,8.123 C9.336,8.123 9.054,7.845 9.054,7.56 C9.054,7.28 9.336,6.998 9.616,6.998 C10.041,6.998 10.32,7.28 10.32,7.56 C10.32,7.844 10.042,8.123 9.616,8.123 Z M12.708,8.123 C12.43,8.123 12.15,7.845 12.15,7.56 C12.15,7.28 12.43,6.998 12.708,6.998 C13.129,6.998 13.412,7.28 13.412,7.56 C13.412,7.844 13.13,8.123 12.708,8.123 Z" id="Shape"></path>
            </g>
            <g id="Group-23" transform="translate(11.000000, 0.000000)">
                <g id="dui">
                    <mask id="mask-2" fill="white">
                        <use xlink:href="#path-1"></use>
                    </mask>
                    <g id="Clip-2"></g>
                    <path d="M2.9970878,0.00585365854 C1.34168049,0.00585365854 0,1.34753415 0,3.00294146 C0,4.65834146 1.34168049,5.99999268 2.9970878,5.99999268 C4.6524878,5.99999268 5.99413902,4.65834146 5.99413902,3.00294146 C5.99413902,1.34753415 4.6524878,0.00585365854 2.9970878,0.00585365854 Z M2.58847317,4.8404122 C2.07627805,4.19124878 1.47395854,3.6966 1.0518878,3.5420561 L2.04586829,2.92390976 L2.52761707,3.88216098 C2.52761707,3.88216098 3.31082927,1.93464878 4.54595854,1.2860561 C4.51611951,1.74965854 4.39550488,2.1512122 4.6062439,2.64583171 C4.06418049,2.76936585 2.94966585,4.16018049 2.58847317,4.8404122 Z" id="Fill-1" fill="#EA9518" mask="url(#mask-2)"></path>
                </g>
            </g>
        </g>
    </g>
</svg>